<mxfile>
    <diagram id="iH-FvHbvJ82xagnNZ5a2" name="Page-1">
        <mxGraphModel dx="986" dy="351" grid="0" gridSize="10" guides="1" tooltips="1" connect="1" arrows="1" fold="1" page="1" pageScale="1" pageWidth="827" pageHeight="1169" background="#FFFFFF" math="0" shadow="0">
            <root>
                <mxCell id="0"/>
                <mxCell id="1" parent="0"/>
                <mxCell id="18" value="" style="image;html=1;image=img/lib/clip_art/computers/Server_128x128.png" parent="1" vertex="1">
                    <mxGeometry x="378.75" y="170" width="122.5" height="50" as="geometry"/>
                </mxCell>
                <mxCell id="15" value="" style="image;html=1;image=img/lib/clip_art/computers/Server_128x128.png" parent="1" vertex="1">
                    <mxGeometry x="208.75" y="169" width="122.5" height="50" as="geometry"/>
                </mxCell>
                <mxCell id="20" style="edgeStyle=orthogonalEdgeStyle;rounded=0;orthogonalLoop=1;jettySize=auto;html=1;entryX=0.012;entryY=0.492;entryDx=0;entryDy=0;entryPerimeter=0;shadow=1;shape=flexArrow;strokeColor=#000000;" parent="1" source="2" target="5" edge="1">
                    <mxGeometry relative="1" as="geometry">
                        <mxPoint x="370" y="130" as="targetPoint"/>
                    </mxGeometry>
                </mxCell>
                <mxCell id="2" value="" style="html=1;verticalLabelPosition=bottom;align=center;labelBackgroundColor=#ffffff;verticalAlign=top;strokeWidth=2;strokeColor=#0080F0;shadow=0;dashed=0;shape=mxgraph.ios7.icons.monitor;" parent="1" vertex="1">
                    <mxGeometry x="210" y="90" width="120" height="80" as="geometry"/>
                </mxCell>
                <mxCell id="3" value="&lt;font color=&quot;#000000&quot;&gt;User Interface&lt;br&gt;Language&lt;br&gt;Runtime&lt;/font&gt;" style="text;html=1;align=middle;verticalAlign=middle;resizable=0;points=[];autosize=1;strokeColor=none;" parent="1" vertex="1">
                    <mxGeometry x="96" y="95" width="90" height="50" as="geometry"/>
                </mxCell>
                <mxCell id="4" value="SAS/AF&lt;br&gt;SCL/SAS&lt;br&gt;Base SAS" style="text;html=1;align=center;verticalAlign=middle;resizable=0;points=[];autosize=1;strokeColor=none;" parent="1" vertex="1">
                    <mxGeometry x="235" y="95" width="70" height="50" as="geometry"/>
                </mxCell>
                <mxCell id="5" value="" style="html=1;verticalLabelPosition=bottom;align=center;labelBackgroundColor=#ffffff;verticalAlign=top;strokeWidth=2;strokeColor=#0080F0;shadow=0;dashed=0;shape=mxgraph.ios7.icons.monitor;" parent="1" vertex="1">
                    <mxGeometry x="380" y="90" width="120" height="80" as="geometry"/>
                </mxCell>
                <mxCell id="6" value="HTML &lt;br&gt;Javascript&lt;br&gt;Browser" style="text;html=1;align=center;verticalAlign=middle;resizable=0;points=[];autosize=1;strokeColor=none;" parent="1" vertex="1">
                    <mxGeometry x="405" y="95" width="70" height="50" as="geometry"/>
                </mxCell>
                <mxCell id="10" value="&lt;font color=&quot;#000000&quot;&gt;Desktop&lt;br&gt;SCL/SAS&lt;br&gt;Base SAS&lt;/font&gt;" style="text;html=1;align=center;verticalAlign=middle;resizable=0;points=[];autosize=1;strokeColor=none;" parent="1" vertex="1">
                    <mxGeometry x="235" y="220" width="70" height="50" as="geometry"/>
                </mxCell>
                <mxCell id="16" value="&lt;font color=&quot;#000000&quot;&gt;Machine&lt;br&gt;Language&lt;br&gt;Runtime&lt;/font&gt;" style="text;html=1;align=middle;verticalAlign=middle;resizable=0;points=[];autosize=1;strokeColor=none;" parent="1" vertex="1">
                    <mxGeometry x="106" y="220" width="70" height="50" as="geometry"/>
                </mxCell>
                <mxCell id="19" value="&lt;font color=&quot;#000000&quot;&gt;9.4 / Viya Server&lt;br&gt;SAS&lt;br&gt;STPs / Jobs&lt;/font&gt;" style="text;html=1;align=center;verticalAlign=middle;resizable=0;points=[];autosize=1;strokeColor=none;" parent="1" vertex="1">
                    <mxGeometry x="390" y="220" width="100" height="50" as="geometry"/>
                </mxCell>
                <mxCell id="22" value="&lt;font style=&quot;font-size: 18px&quot; color=&quot;#000000&quot;&gt;Frontend&lt;/font&gt;" style="text;html=1;align=center;verticalAlign=middle;resizable=0;points=[];autosize=2;strokeColor=none;rotation=-30;shadow=1;" parent="1" vertex="1">
                    <mxGeometry x="60" y="75" width="60" height="20" as="geometry"/>
                </mxCell>
                <mxCell id="24" value="&lt;font style=&quot;font-size: 18px&quot;&gt;&lt;font color=&quot;#000000&quot;&gt;Backend&lt;/font&gt;&lt;br&gt;&lt;/font&gt;" style="text;html=1;align=center;verticalAlign=middle;resizable=0;points=[];autosize=2;strokeColor=none;rotation=-30;shadow=1;" parent="1" vertex="1">
                    <mxGeometry x="70" y="200" width="60" height="20" as="geometry"/>
                </mxCell>
                <mxCell id="25" value="&lt;font style=&quot;font-size: 18px&quot; color=&quot;#000000&quot;&gt;Existing&lt;/font&gt;" style="text;html=1;align=center;verticalAlign=middle;resizable=0;points=[];autosize=2;strokeColor=none;rotation=0;shadow=1;" parent="1" vertex="1">
                    <mxGeometry x="235" y="40" width="60" height="20" as="geometry"/>
                </mxCell>
                <mxCell id="26" value="&lt;font style=&quot;font-size: 18px&quot; color=&quot;#000000&quot;&gt;Proposed&lt;/font&gt;" style="text;html=1;align=center;verticalAlign=middle;resizable=0;points=[];autosize=2;strokeColor=none;rotation=0;shadow=1;" parent="1" vertex="1">
                    <mxGeometry x="410" y="40" width="60" height="20" as="geometry"/>
                </mxCell>
                <mxCell id="27" style="edgeStyle=orthogonalEdgeStyle;rounded=0;orthogonalLoop=1;jettySize=auto;html=1;entryX=0.012;entryY=0.492;entryDx=0;entryDy=0;entryPerimeter=0;shadow=1;shape=flexArrow;strokeColor=#000000;endWidth=22.758620689655174;endSize=5.910344827586207;" parent="1" edge="1">
                    <mxGeometry relative="1" as="geometry">
                        <mxPoint x="382.69000000000005" y="210" as="targetPoint"/>
                        <mxPoint x="331.25" y="210.64" as="sourcePoint"/>
                        <Array as="points">
                            <mxPoint x="357" y="210"/>
                        </Array>
                    </mxGeometry>
                </mxCell>
            </root>
        </mxGraphModel>
    </diagram>
</mxfile>